<svg width="186" height="65" viewBox="0 0 186 65" fill="none" xmlns="http://www.w3.org/2000/svg">
<path d="M5.824 19.772V15.488H20.328V19.772H5.824ZM16.632 3L26.32 24H20.692L12.376 5.212H14L5.712 24H0.056L9.772 3H16.632ZM28.4581 3H33.7501V24H28.4581V3ZM55.9486 21.648H53.6526L61.9966 3H67.5686L57.7126 24H51.7486L41.8646 3H47.5486L55.9486 21.648ZM69.6651 3H74.9571V24H69.6651V3ZM89.292 3C91.756 3 93.912 3.43867 95.76 4.316C97.608 5.19333 99.0453 6.416 100.072 7.984C101.117 9.552 101.64 11.3907 101.64 13.5C101.64 15.5907 101.117 17.4293 100.072 19.016C99.0453 20.584 97.608 21.8067 95.76 22.684C93.912 23.5613 91.756 24 89.292 24H79.044V3H89.292ZM84.308 21.844L81.732 19.324H89.684C91.028 19.324 92.1947 19.0813 93.184 18.596C94.1733 18.1107 94.9387 17.4387 95.48 16.58C96.0213 15.7027 96.292 14.676 96.292 13.5C96.292 12.3053 96.0213 11.2787 95.48 10.42C94.9387 9.56133 94.1733 8.88933 93.184 8.404C92.1947 7.91867 91.028 7.676 89.684 7.676H81.732L84.308 5.156V21.844ZM122.196 11.54V15.46H106.992V11.54H122.196ZM110.576 13.5L109.176 22.18L106.964 19.66H123.092V24H103.884L105.508 13.5L103.884 3H122.952V7.34H106.964L109.176 4.82L110.576 13.5ZM137.635 24.448C135.171 24.448 133.006 23.9907 131.139 23.076C129.291 22.1613 127.854 20.8827 126.827 19.24C125.801 17.5973 125.287 15.684 125.287 13.5C125.287 11.316 125.801 9.40267 126.827 7.76C127.854 6.11733 129.291 4.83867 131.139 3.924C133.006 3.00933 135.171 2.552 137.635 2.552C140.099 2.552 142.255 3.00933 144.103 3.924C145.97 4.83867 147.417 6.11733 148.443 7.76C149.489 9.40267 150.011 11.316 150.011 13.5C150.011 15.684 149.489 17.5973 148.443 19.24C147.417 20.8827 145.97 22.1613 144.103 23.076C142.255 23.9907 140.099 24.448 137.635 24.448ZM137.635 19.716C139.091 19.716 140.342 19.4733 141.387 18.988C142.433 18.484 143.235 17.7653 143.795 16.832C144.374 15.8987 144.663 14.788 144.663 13.5C144.663 12.212 144.374 11.1013 143.795 10.168C143.235 9.23467 142.433 8.52533 141.387 8.04C140.342 7.536 139.091 7.284 137.635 7.284C136.198 7.284 134.957 7.536 133.911 8.04C132.866 8.52533 132.054 9.23467 131.475 10.168C130.897 11.1013 130.607 12.212 130.607 13.5C130.607 14.788 130.897 15.8987 131.475 16.832C132.054 17.7653 132.866 18.484 133.911 18.988C134.957 19.4733 136.198 19.716 137.635 19.716Z" fill="#5041FF"/>
<path d="M6.648 38.6H7.872V47H6.876V43.484L6.96 39.932L2.22 47H0.996V38.6H1.992V42.116L1.908 45.668L6.648 38.6ZM14.7994 40.4H15.7954V47H14.7994V44.096H10.7434V47H9.74738V40.4H10.7434V43.148H14.7994V40.4ZM22.5555 40.4V41.336H20.2755V47H19.2795V41.336H16.9995V40.4H20.2755H22.5555ZM26.6483 40.268C28.7003 40.268 30.0323 41.828 29.9483 44H24.2963C24.3923 45.368 25.3643 46.196 26.6963 46.196C27.6083 46.196 28.3643 45.812 28.7603 45.044H29.7923C29.2403 46.448 28.0403 47.132 26.6603 47.132C24.7043 47.132 23.2763 45.74 23.2763 43.724C23.2763 41.72 24.6803 40.268 26.6483 40.268ZM26.6483 41.204C25.4363 41.204 24.5723 41.984 24.3443 43.064H28.8683C28.6523 41.96 27.8363 41.204 26.6483 41.204ZM32.8247 40.4H37.3127V47H36.3167V41.336H33.6647L33.1727 44.432C32.8487 46.424 32.2007 47.132 31.1567 47.132C30.9887 47.132 30.7847 47.12 30.6167 47.096V46.184C30.7247 46.196 30.8567 46.208 30.9647 46.208C31.6367 46.208 31.9487 45.812 32.1887 44.372L32.8247 40.4ZM40.7231 40.4H45.2111V47H44.2151V41.336H41.5631L41.0711 44.432C40.7471 46.424 40.0991 47.132 39.0551 47.132C38.8871 47.132 38.6831 47.12 38.5151 47.096V46.184C38.6231 46.196 38.7551 46.208 38.8631 46.208C39.5351 46.208 39.8471 45.812 40.0871 44.372L40.7231 40.4ZM50.0976 40.268C52.1496 40.268 53.4816 41.828 53.3976 44H47.7456C47.8416 45.368 48.8136 46.196 50.1456 46.196C51.0576 46.196 51.8136 45.812 52.2096 45.044H53.2416C52.6896 46.448 51.4896 47.132 50.1096 47.132C48.1536 47.132 46.7256 45.74 46.7256 43.724C46.7256 41.72 48.1296 40.268 50.0976 40.268ZM50.0976 41.204C48.8856 41.204 48.0216 41.984 47.7936 43.064H52.3176C52.1016 41.96 51.2856 41.204 50.0976 41.204ZM60.6848 47H59.3768L55.8488 43.82V47H54.8528V40.4H55.8488V43.34L59.0648 40.4H60.3728L56.9048 43.532L60.6848 47ZM66.8641 40.4V41.336H64.5841V47H63.5881V41.336H61.3081V40.4H64.5841H66.8641ZM72.8599 40.4H73.9279L69.4759 50H68.4079L70.1599 46.196L67.4839 40.4H68.5519L70.6879 45.128L72.8599 40.4ZM80.1036 40.4H81.0996V47H80.1036V45.668C79.5876 46.556 78.6996 47.132 77.5596 47.132C75.7596 47.132 74.4756 45.692 74.4756 43.7C74.4756 41.696 75.7716 40.268 77.5596 40.268C78.6996 40.268 79.5996 40.856 80.1036 41.756V40.4ZM77.7516 46.184C79.0956 46.184 80.1156 45.152 80.1156 43.7C80.1156 42.248 79.0956 41.216 77.7516 41.216C76.4076 41.216 75.4836 42.26 75.4836 43.7C75.4836 45.152 76.4196 46.184 77.7516 46.184ZM84.3638 40.4H88.8518V47H87.8558V41.336H85.2038L84.7118 44.432C84.3878 46.424 83.7398 47.132 82.6958 47.132C82.5278 47.132 82.3238 47.12 82.1558 47.096V46.184C82.2638 46.196 82.3958 46.208 82.5038 46.208C83.1758 46.208 83.4878 45.812 83.7278 44.372L84.3638 40.4ZM93.7622 42.584C95.2502 42.584 96.0902 43.304 96.0902 44.756C96.0902 46.196 95.2022 47 93.7142 47H90.6302V40.4H91.6262V42.584H93.7622ZM93.6902 46.052C94.7702 46.052 95.0822 45.476 95.0822 44.756C95.0822 44.012 94.7942 43.472 93.7142 43.472H91.6262V46.052H93.6902ZM102.643 40.4H103.639V47H102.643V44.096H98.5871V47H97.5911V40.4H98.5871V43.148H102.643V40.4ZM108.539 42.584C110.027 42.584 110.867 43.304 110.867 44.756C110.867 46.196 109.979 47 108.491 47H105.419V40.4H106.415V42.584H108.539ZM111.911 40.4H112.907V47H111.911V40.4ZM108.479 46.052C109.559 46.052 109.859 45.476 109.859 44.756C109.859 44.012 109.571 43.472 108.491 43.472H106.415V46.052H108.479ZM117.797 40.268C119.849 40.268 121.181 41.828 121.097 44H115.445C115.541 45.368 116.513 46.196 117.845 46.196C118.757 46.196 119.513 45.812 119.909 45.044H120.941C120.389 46.448 119.189 47.132 117.809 47.132C115.853 47.132 114.425 45.74 114.425 43.724C114.425 41.72 115.829 40.268 117.797 40.268ZM117.797 41.204C116.585 41.204 115.721 41.984 115.493 43.064H120.017C119.801 41.96 118.985 41.204 117.797 41.204ZM129.294 47.132C127.362 47.132 125.886 45.668 125.886 43.7C125.886 41.732 127.362 40.268 129.294 40.268C130.83 40.268 132.15 41.192 132.498 42.704H131.466C131.154 41.768 130.314 41.192 129.294 41.192C127.902 41.192 126.894 42.248 126.894 43.7C126.894 45.164 127.914 46.208 129.294 46.208C130.314 46.208 131.154 45.62 131.466 44.696H132.498C132.138 46.232 130.806 47.132 129.294 47.132ZM138.624 40.4H139.848V47H138.852V43.832L138.912 41.612L135.108 47H133.884V40.4H134.88V43.568L134.82 45.776L138.624 40.4ZM144.751 47.132C142.819 47.132 141.343 45.668 141.343 43.7C141.343 41.732 142.819 40.268 144.751 40.268C146.287 40.268 147.607 41.192 147.955 42.704H146.923C146.611 41.768 145.771 41.192 144.751 41.192C143.359 41.192 142.351 42.248 142.351 43.7C142.351 45.164 143.371 46.208 144.751 46.208C145.771 46.208 146.611 45.62 146.923 44.696H147.955C147.595 46.232 146.263 47.132 144.751 47.132ZM154.11 40.4V41.336H151.83V47H150.834V41.336H148.554V40.4H151.83H154.11ZM158.203 40.268C160.255 40.268 161.587 41.828 161.503 44H155.851C155.947 45.368 156.919 46.196 158.251 46.196C159.163 46.196 159.919 45.812 160.315 45.044H161.347C160.795 46.448 159.595 47.132 158.215 47.132C156.259 47.132 154.831 45.74 154.831 43.724C154.831 41.72 156.235 40.268 158.203 40.268ZM158.203 41.204C156.991 41.204 156.127 41.984 155.899 43.064H160.423C160.207 41.96 159.391 41.204 158.203 41.204ZM168.574 40.4H169.798V47H168.802V43.832L168.862 41.504L166.39 44.996H166.354L163.882 41.504L163.954 43.832V47H162.958V40.4H164.182L166.378 43.472L168.574 40.4ZM174.692 42.584C176.18 42.584 177.02 43.304 177.02 44.756C177.02 46.196 176.132 47 174.644 47H171.572V40.4H172.568V42.584H174.692ZM178.064 40.4H179.06V47H178.064V40.4ZM174.632 46.052C175.712 46.052 176.012 45.476 176.012 44.756C176.012 44.012 175.724 43.472 174.644 43.472H172.568V46.052H174.632ZM5.184 58.484C6.06 58.724 6.456 59.348 6.456 60.128C6.456 61.268 5.7 62 4.14 62H0.888V55.4H3.84C5.376 55.4 6.144 55.952 6.144 57.08C6.144 57.716 5.796 58.172 5.184 58.484ZM5.136 57.248C5.136 56.624 4.86 56.204 3.768 56.204H1.884V58.22H3.744C4.788 58.22 5.136 57.788 5.136 57.248ZM4.08 61.196C5.172 61.196 5.46 60.68 5.46 60.044C5.46 59.444 5.112 58.964 4.056 58.964H1.884V61.196H4.08ZM12.5772 55.4H13.8012V62H12.8052V58.832L12.8652 56.612L9.06122 62H7.83722V55.4H8.83322V58.568L8.77322 60.776L12.5772 55.4ZM21.9336 61.064H23.1336V63.764H22.1376V62H20.9376H15.9096V63.764H14.9136V61.064H16.0416C16.4016 60.812 16.6536 60.2 16.8456 58.988L17.4216 55.4H21.9336V61.064ZM17.1576 61.064H20.9376V56.336H18.2736L17.8416 59.012C17.6736 60.044 17.4576 60.68 17.1576 61.064ZM27.1757 55.268C29.2277 55.268 30.5597 56.828 30.4757 59H24.8237C24.9197 60.368 25.8917 61.196 27.2237 61.196C28.1357 61.196 28.8917 60.812 29.2877 60.044H30.3197C29.7677 61.448 28.5677 62.132 27.1877 62.132C25.2317 62.132 23.8037 60.74 23.8037 58.724C23.8037 56.72 25.2077 55.268 27.1757 55.268ZM27.1757 56.204C25.9637 56.204 25.0997 56.984 24.8717 58.064H29.3957C29.1797 56.96 28.3637 56.204 27.1757 56.204ZM35.063 55.268C36.947 55.268 38.471 56.72 38.471 58.7C38.471 60.68 36.971 62.132 35.063 62.132C33.167 62.132 31.667 60.668 31.667 58.7C31.667 56.72 33.191 55.268 35.063 55.268ZM35.063 56.216C33.743 56.216 32.675 57.236 32.675 58.7C32.675 60.152 33.731 61.184 35.063 61.184C36.407 61.184 37.463 60.152 37.463 58.7C37.463 57.248 36.395 56.216 35.063 56.216ZM45.022 55.4H46.018V62H45.022V59.096H40.966V62H39.97V55.4H40.966V58.148H45.022V55.4ZM53.1622 55.4H54.1582V62H53.1622V60.668C52.6462 61.556 51.7582 62.132 50.6182 62.132C48.8182 62.132 47.5342 60.692 47.5342 58.7C47.5342 56.696 48.8302 55.268 50.6182 55.268C51.7582 55.268 52.6582 55.856 53.1622 56.756V55.4ZM50.8102 61.184C52.1542 61.184 53.1742 60.152 53.1742 58.7C53.1742 57.248 52.1542 56.216 50.8102 56.216C49.4662 56.216 48.5422 57.26 48.5422 58.7C48.5422 60.152 49.4782 61.184 50.8102 61.184ZM59.351 55.508C61.091 55.508 62.399 56.792 62.399 58.724C62.399 60.776 60.935 62.132 59.051 62.132C57.203 62.132 55.691 60.848 55.667 58.304C55.667 53.48 57.803 52.628 61.619 52.628V53.564C58.379 53.564 56.915 54.14 56.699 57.104C57.191 56.048 58.247 55.508 59.351 55.508ZM59.015 61.268C60.347 61.268 61.403 60.284 61.403 58.772C61.403 57.332 60.431 56.372 59.123 56.372C57.827 56.372 56.675 57.308 56.675 58.76C56.675 60.284 57.683 61.268 59.015 61.268ZM65.0864 55.4H69.5744V62H68.5784V56.336H65.9264L65.4344 59.432C65.1104 61.424 64.4624 62.132 63.4184 62.132C63.2504 62.132 63.0464 62.12 62.8784 62.096V61.184C62.9864 61.196 63.1184 61.208 63.2264 61.208C63.8984 61.208 64.2104 60.812 64.4504 59.372L65.0864 55.4ZM77.1608 55.268C79.0328 55.268 80.5568 56.72 80.5568 58.7C80.5568 60.68 79.0568 62.132 77.1608 62.132C75.4208 62.132 74.0048 60.908 73.7888 59.18H72.3488V62H71.3528V55.4H72.3488V58.232H73.7888C74.0048 56.492 75.4328 55.268 77.1608 55.268ZM77.1608 61.184C78.4928 61.184 79.5488 60.152 79.5488 58.7C79.5488 57.248 78.4928 56.216 77.1608 56.216C75.8288 56.216 74.7608 57.236 74.7608 58.7C74.7608 60.152 75.8288 61.184 77.1608 61.184ZM88.0273 61.064H89.2273V63.764H88.2313V62H87.0313H82.0033V63.764H81.0073V61.064H82.1353C82.4953 60.812 82.7473 60.2 82.9393 58.988L83.5153 55.4H88.0273V61.064ZM83.2513 61.064H87.0313V56.336H84.3673L83.9353 59.012C83.7673 60.044 83.5513 60.68 83.2513 61.064ZM93.2694 55.268C95.3214 55.268 96.6534 56.828 96.5694 59H90.9174C91.0134 60.368 91.9854 61.196 93.3174 61.196C94.2294 61.196 94.9854 60.812 95.3814 60.044H96.4134C95.8614 61.448 94.6614 62.132 93.2814 62.132C91.3254 62.132 89.8974 60.74 89.8974 58.724C89.8974 56.72 91.3014 55.268 93.2694 55.268ZM93.2694 56.204C92.0574 56.204 91.1934 56.984 90.9654 58.064H95.4894C95.2734 56.96 94.4574 56.204 93.2694 56.204ZM103.077 55.4H104.073V62H103.077V59.096H99.0207V62H98.0247V55.4H99.0207V58.148H103.077V55.4ZM110.593 55.4H111.817V62H110.821V58.832L110.881 56.612L107.077 62H105.853V55.4H106.849V58.568L106.789 60.776L110.593 55.4ZM115.664 55.4H118.88V62H117.884V59.504H116.156L114.236 62H113L115.064 59.444C114.008 59.264 113.312 58.652 113.312 57.56C113.312 56.156 114.176 55.4 115.664 55.4ZM115.748 58.664H117.884V56.3H115.7C114.62 56.3 114.32 56.84 114.32 57.536C114.32 58.196 114.716 58.664 115.748 58.664Z" fill="white"/>
</svg>
