<?xml version="1.0" encoding="utf-8"?>
<!-- Generator: Adobe Illustrator 24.3.0, SVG Export Plug-In . SVG Version: 6.00 Build 0)  -->
<svg version="1.1" id="Слой_1" xmlns="http://www.w3.org/2000/svg" xmlns:xlink="http://www.w3.org/1999/xlink" x="0px" y="0px"
	 viewBox="0 0 397.1 52.1" style="enable-background:new 0 0 397.1 52.1;" xml:space="preserve">
<style type="text/css">
	.st0{fill:#1C1B1B;}
	.st1{fill:#DC4E41;}
</style>
<g>
	<path class="st0" d="M100.8,2.7H82.5c-0.8,0-1.2,0.4-1.2,1.2v44.3c0,0.8,0.4,1.2,1.2,1.2h18.3c13.3,0,24-9.5,24-23.4
		C124.8,12.3,114.1,2.7,100.8,2.7z M100.8,39.9h-9.5V12.1h9.5c8.5,0,14,5.3,14,13.9C114.8,34.6,109.3,39.9,100.8,39.9z"/>
	<path class="st0" d="M141.3,2.7h-7.5c-0.8,0-1.2,0.4-1.2,1.2v44.3c0,0.8,0.4,1.2,1.2,1.2h7.5c0.8,0,1.2-0.4,1.2-1.2V3.9
		C142.5,3.1,142.1,2.7,141.3,2.7z"/>
	<path class="st0" d="M171.1,20.4c-7.8-0.8-10.4-2.1-10.4-4.9c0-2.7,3.2-4.3,9-4.3c5.9,0,10.9,1.7,14.8,4.8c0.7,0.6,1.3,0.5,1.8-0.1
		l4.3-5.3c0.4-0.6,0.3-1.1-0.3-1.5C184.8,4.6,177.8,2,170.2,2c-11.2,0-19.4,5.4-19.4,13.9c0,9.7,7.6,13.1,19.1,14.1
		c8.7,0.8,11.9,2.2,11.9,5.6c0,3.2-3.3,5.3-10.5,5.3c-6.8,0-11.2-1.6-16-5.3c-0.6-0.5-1.2-0.4-1.7,0.3l-4,5.4
		c-0.5,0.7-0.5,1.3,0.1,1.7c6.2,5.1,12.9,7.2,21.4,7.2c11.8,0,20.5-5.4,20.5-14.8C191.7,25.6,183.1,21.6,171.1,20.4z"/>
	<path class="st0" d="M221.9,11.4c5.8,0,9.7,2.1,13.2,6.9c0.3,0.4,1,0.8,1.6,0.2l5.4-4.1c0.4-0.3,0.5-0.8,0.2-1.4
		C238.2,6,230,2,221.9,2c-13.7,0-24.2,10.1-24.2,23.9c0,13.8,10.5,24.2,24.2,24.2c8.6,0,16-3.8,20.4-11c0.3-0.4,0.3-0.9-0.2-1.4
		l-5.4-4.3c-0.5-0.4-0.9-0.4-1.4,0c-3.5,5.1-7.6,7.2-13.5,7.2c-8.5,0-14.2-6.3-14.2-14.8C207.7,17.4,213.4,11.4,221.9,11.4z"/>
	<path class="st0" d="M272,2c-13.6,0-24.6,10.4-24.6,24.1c0,13.8,11.1,24,24.6,24c13.5,0,24.5-10.2,24.5-24
		C296.5,12.4,285.4,2,272,2z M272,40.8c-8.6,0-14.6-6.2-14.6-14.7c0-8.7,6-14.8,14.6-14.8c8.5,0,14.5,6.1,14.5,14.8
		C286.4,34.6,280.4,40.8,272,40.8z"/>
	<path class="st0" d="M344.9,19.8c0-9.7-8-17.1-18.4-17.1h-21.1c-0.8,0-1.2,0.4-1.2,1.2v44.3c0,0.8,0.4,1.2,1.2,1.2h7.5
		c0.8,0,1.2-0.4,1.2-1.2V37h12c0.3,0,0.8,0,1.4-0.1l5.7,11.7c0.3,0.6,0.9,0.9,1.5,0.9h8.4c0.7,0,1.1-0.6,0.8-1.2l-7.4-14.2
		C341.5,31.2,344.9,25.9,344.9,19.8z M326.5,27.6h-12.4V12.1h12.4c5.4,0,8.4,3.3,8.4,7.6C334.9,24.1,331.9,27.6,326.5,27.6z"/>
	<path class="st0" d="M387.3,24.4v-0.6c3.2-1.6,5-4.6,5-8.3c0-7.2-6-12.8-14.8-12.8h-22.9c-0.8,0-1.2,0.4-1.2,1.2v44.3
		c0,0.8,0.4,1.2,1.2,1.2h24.7c9.6,0,16-5.7,16-14.2C395.4,30.1,392.5,26.2,387.3,24.4z M363.3,11.9h14.3c3,0,4.8,1.7,4.8,4.5
		c0,2.7-2.1,4.5-4.8,4.5h-14.3V11.9z M379.1,40.1h-15.8v-9.9h15.8c4.2,0,6.3,1.6,6.3,5C385.4,38.1,383.1,40.1,379.1,40.1z"/>
</g>
<path class="st1" d="M21.4,39H8.9c-2.9,0-5.3,2-6,4.8l-1.3,5.6h12.5h31.2h12.5c2.9,0,5.3-2,6-4.8l1.3-5.6H52.6H21.4z"/>
<path class="st1" d="M41.9,13.1h3.1h2.3h10.6c2.9,0,5.3-2,6-4.8l1.3-5.6H47.2h-2.3h-3.1h-1.1h-2.5c-2.9,0-5.3,2-6,4.8L31,13.1h9.8
	H41.9z"/>
<path class="st1" d="M35.8,20.9h-0.9h-4.3h-7c-2.9,0-5.3,2-6,4.8l-1.3,5.6h14.3h4.3h0.9h7.1h15c2.9,0,5.3-2,6-4.8l1.3-5.6H42.9H35.8
	z"/>
</svg>
